<?xml version="1.0" encoding="UTF-8" standalone="no"?>
<svg
   xmlns:dc="http://purl.org/dc/elements/1.1/"
   xmlns:cc="http://creativecommons.org/ns#"
   xmlns:rdf="http://www.w3.org/1999/02/22-rdf-syntax-ns#"
   xmlns:svg="http://www.w3.org/2000/svg"
   xmlns="http://www.w3.org/2000/svg"
   id="svg22"
   xml:space="preserve"
   style="fill:#fff"
   viewBox="0 0 36.666666 33.333333"
   y="0px"
   x="0px"
   version="1.1"
   width="110"
   height="100"><metadata
     id="metadata28"><rdf:RDF><cc:Work
         rdf:about=""><dc:format>image/svg+xml</dc:format><dc:type
           rdf:resource="http://purl.org/dc/dcmitype/StillImage" /><dc:title></dc:title></cc:Work></rdf:RDF></metadata><defs
     id="defs26" /><polygon
     transform="translate(-3.9043474,-32.876013)"
     id="polygon6"
     points="22.568022,58.01701 29.164984,57.380932 22.643658,51.318367 22.020853,47.863605 16.632685,45.423038 20.745253,51.763165 " /><polygon
     transform="translate(-3.9043474,-32.876013)"
     id="polygon8"
     points="32.519504,57.204678 34.084187,56.171074 37.267899,55.742302 39.243443,51.654907 29.531015,46.630955 28.515945,47.80093 " /><polygon
     transform="translate(-3.9043474,-32.876013)"
     id="polygon10"
     points="29.257025,43.025986 29.704639,46.143391 39.466469,51.193581 39.475361,51.17511 35.920982,44.641888 31.179474,41.926514 30.426372,40.356636 " /><polygon
     transform="translate(-3.9043474,-32.876013)"
     id="polygon12"
     points="27.547958,47.489685 19.154398,39.811531 12.639708,39.188602 9.213623,43.855038 16.047323,44.595303 22.306053,47.42989 " /><polygon
     transform="translate(-3.9043474,-32.876013)"
     id="polygon14"
     points="32.036011,57.377865 28.046164,48.007614 22.553308,47.925404 23.118511,51.059402 29.541849,57.031429 " /><polygon
     transform="translate(-3.9043474,-32.876013)"
     id="polygon16"
     points="8.32866,44.273975 5,45.297062 6.0679164,50.269482 8.8253641,52.325172 9.0938454,56.229176 11.206136,59.08931 15.431217,58.12558 20.8207,61.187386 22.108698,58.274849 20.263388,51.943489 15.793179,45.070591 " /><polygon
     transform="translate(-3.9043474,-32.876013)"
     id="polygon18"
     points="20.256374,39.916908 20.001543,39.892551 28.181408,47.403843 29.198795,46.230801 28.728075,42.953857 29.987648,40.079826 25.544363,37.730484 22.70026,39.814724 " /><polygon
     transform="translate(-3.9043474,-32.876013)"
     id="polygon20"
     points="26.831171,60.296475 28.7761,57.934048 22.555061,58.533939 21.307636,61.354874 " /></svg>