<?xml version="1.0" encoding="UTF-8" standalone="no"?>
<svg
   xmlns:dc="http://purl.org/dc/elements/1.1/"
   xmlns:cc="http://creativecommons.org/ns#"
   xmlns:rdf="http://www.w3.org/1999/02/22-rdf-syntax-ns#"
   xmlns:svg="http://www.w3.org/2000/svg"
   xmlns="http://www.w3.org/2000/svg"
   id="svg22"
   xml:space="preserve"
   style="fill:#fff"
   viewBox="0 0 36.666666 33.333333"
   y="0px"
   x="0px"
   version="1.1"
   width="110"
   height="100"><metadata
     id="metadata28"><rdf:RDF><cc:Work
         rdf:about=""><dc:format>image/svg+xml</dc:format><dc:type
           rdf:resource="http://purl.org/dc/dcmitype/StillImage" /><dc:title></dc:title></cc:Work></rdf:RDF></metadata><defs
     id="defs26"><clipPath
       id="clipPath42"
       clipPathUnits="userSpaceOnUse"><g
         id="use44"><polygon
           id="polygon21"
           points="20.745253,51.763165 22.568022,58.01701 29.164984,57.380932 22.643658,51.318367 22.020853,47.863605 16.632685,45.423038 " /><polygon
           id="polygon23"
           points="28.515945,47.80093 32.519504,57.204678 34.084187,56.171074 37.267899,55.742302 39.243443,51.654907 29.531015,46.630955 " /><polygon
           id="polygon25"
           points="30.426372,40.356636 29.257025,43.025986 29.704639,46.143391 39.466469,51.193581 39.475361,51.17511 35.920982,44.641888 31.179474,41.926514 " /><polygon
           id="polygon27"
           points="22.306053,47.42989 27.547958,47.489685 19.154398,39.811531 12.639708,39.188602 9.213623,43.855038 16.047323,44.595303 " /><polygon
           id="polygon29"
           points="29.541849,57.031429 32.036011,57.377865 28.046164,48.007614 22.553308,47.925404 23.118511,51.059402 " /><polygon
           id="polygon31"
           points="15.793179,45.070591 8.32866,44.273975 5,45.297062 6.0679164,50.269482 8.8253641,52.325172 9.0938454,56.229176 11.206136,59.08931 15.431217,58.12558 20.8207,61.187386 22.108698,58.274849 20.263388,51.943489 " /><polygon
           id="polygon33"
           points="22.70026,39.814724 20.256374,39.916908 20.001543,39.892551 28.181408,47.403843 29.198795,46.230801 28.728075,42.953857 29.987648,40.079826 25.544363,37.730484 " /><polygon
           id="polygon35"
           points="21.307636,61.354874 26.831171,60.296475 28.7761,57.934048 22.555061,58.533939 " /></g></clipPath></defs><path
     id="path2"
     d="m 21.750465,23.810484 -1.622909,-2.248035 c 1.117004,-0.51392 3.901001,-2.25304 6.687995,-7.593624 C 30.502166,6.9066522 27.571914,2.1115482 27.445686,1.9106892 L 27.089042,1.3451752 18.333336,18.117266 9.5776211,1.3451752 9.2209851,1.9106892 c -0.126228,0.200859 -3.056488,4.995964 0.630127,12.0581358 2.7870029,5.340584 5.5709989,7.079704 6.6880039,7.593624 l -1.62291,2.248035 c -0.613106,0.138249 -2.85012,0.745335 -4.096351,2.44138 -1.3794789,1.875366 -1.3333969,4.109375 0.107193,5.194317 0.471847,0.355644 1.038864,0.541977 1.630928,0.541977 0.153274,0 0.309555,-0.01302 0.465835,-0.03807 1.025841,-0.168306 2.009606,-0.868561 2.76796,-1.972538 1.176117,-1.713074 1.08094,-3.989159 1.030853,-4.598251 l 1.510712,-2.147854 1.510711,2.147854 c -0.05009,0.609092 -0.145263,2.885177 1.030846,4.598251 0.758362,1.103977 1.742127,1.804232 2.767967,1.972538 0.760369,0.121216 1.502701,-0.0561 2.096764,-0.503906 1.440582,-1.084942 1.486664,-3.318951 0.107193,-5.194317 -1.246239,-1.696045 -3.483254,-2.303131 -4.096352,-2.441381 z m 3.022362,6.452389 c -0.75573,0.500271 -2.012924,-0.06781 -2.807976,-1.268841 -0.795113,-1.201027 -0.827049,-2.580253 -0.07132,-3.080524 0.755738,-0.500275 2.012864,0.06781 2.807976,1.268837 0.79512,1.20103 0.826988,2.580257 0.07132,3.080528 z M 11.965156,27.182345 c 0.795113,-1.201031 2.052246,-1.769112 2.807976,-1.268837 0.75573,0.500271 0.723801,1.879497 -0.07131,3.080524 -0.795052,1.201031 -2.052246,1.769112 -2.807976,1.268841 -0.755668,-0.500271 -0.7238,-1.879498 0.07131,-3.080528 z" /></svg>